<?xml version="1.0" encoding="iso-8859-1"?>
<!-- Generator: Adobe Illustrator 19.0.0, SVG Export Plug-In . SVG Version: 6.00 Build 0)  -->
<svg version="1.1" id="Layer_1" xmlns="http://www.w3.org/2000/svg" xmlns:xlink="http://www.w3.org/1999/xlink" x="0px" y="0px"
	 viewBox="0 0 511.999 511.999" style="enable-background:new 0 0 511.999 511.999;" xml:space="preserve">
<path style="fill:#A7ADF0;" d="M454.352,326.554l-21.869-25.239c29.31-25.413,46.125-62.218,46.125-100.968
	c0-73.652-59.918-133.565-133.565-133.565c-72.223,0-130.853,56.489-133.473,128.609l-33.369-1.218
	c3.277-90.152,76.565-160.782,166.842-160.782c92.06,0,166.957,74.891,166.957,166.957
	C511.999,248.793,490.988,294.794,454.352,326.554z"/>
<path style="fill:#C4C8F5;" d="M187.026,391.424L25.129,229.521l65.261-65.261l112.381,101.239L187.026,391.424z"/>
<polygon style="fill:#A7ADF0;" points="60.543,194.109 25.129,229.521 187.026,391.424 194.899,328.464 "/>
<g>
	<path style="fill:#E1E3FA;" d="M16.695,256c-4.272,0-8.544-1.631-11.804-4.892c-6.521-6.521-6.521-17.087,0-23.609l89.043-89.043
		c6.521-6.521,17.087-6.521,23.609,0c6.521,6.521,6.521,17.087,0,23.609L28.5,251.108C25.239,254.369,20.967,256,16.695,256z"/>
	<path style="fill:#E1E3FA;" d="M461.912,478.608H161.39c-4.788,0-9.347-2.055-12.516-5.641c-3.169-3.597-4.647-8.37-4.049-13.131
		l33.391-267.13c1.044-8.348,8.147-14.62,16.565-14.62h233.739c8.418,0,15.521,6.272,16.565,14.62l33.391,267.13
		c0.598,4.76-0.88,9.532-4.049,13.131C471.26,476.554,466.701,478.608,461.912,478.608z"/>
</g>
<g>
	<path style="fill:#C4C8F5;" d="M445.086,192.706c-1.044-8.348-8.147-14.62-16.565-14.62h-116.87v300.522h150.261
		c4.788,0,9.347-2.055,12.516-5.641c3.169-3.597,4.647-8.37,4.049-13.131L445.086,192.706z"/>
	<polygon style="fill:#C4C8F5;" points="150.827,411.826 472.476,411.826 468.302,378.434 155,378.434 	"/>
</g>
<polygon style="fill:#A7ADF0;" points="311.651,411.826 472.476,411.826 468.302,378.434 311.651,378.434 "/>
<g>
</g>
<g>
</g>
<g>
</g>
<g>
</g>
<g>
</g>
<g>
</g>
<g>
</g>
<g>
</g>
<g>
</g>
<g>
</g>
<g>
</g>
<g>
</g>
<g>
</g>
<g>
</g>
<g>
</g>
</svg>
